{
  "accessors": [
    {
      "bufferView": 2,
      "componentType": 5126,
      "count": 27791,
      "max": [
        0.026523830369114876,
        0.026523828506469727,
        0.09020158648490906
      ],
      "min": [
        -0.026523830369114876,
        -0.026523830369114876,
        0.00021394784562289715
      ],
      "type": "VEC3"
    },
    {
      "bufferView": 2,
      "byteOffset": 333492,
      "componentType": 5126,
      "count": 27791,
      "max": [
        0.9999997615814209,
        0.9999997615814209,
        1.0
      ],
      "min": [
        -0.9999997615814209,
        -0.9999997615814209,
        -1.0
      ],
      "type": "VEC3"
    },
    {
      "bufferView": 3,
      "componentType": 5126,
      "count": 27791,
      "max": [
        0.9999997019767761,
        0.9887158274650574,
        0.9999542832374573,
        1.0
      ],
      "min": [
        -0.9981070756912231,
        -0.9999918937683105,
        -0.9999998211860657,
        -1.0
      ],
      "type": "VEC4"
    },
    {
      "bufferView": 1,
      "componentType": 5126,
      "count": 27791,
      "max": [
        0.955538272857666,
        0.960826575756073
      ],
      "min": [
        0.00048828125,
        0.00048828125
      ],
      "type": "VEC2"
    },
    {
      "bufferView": 0,
      "componentType": 5125,
      "count": 147456,
      "type": "SCALAR"
    },
    {
      "bufferView": 2,
      "byteOffset": 666984,
      "componentType": 5126,
      "count": 10083,
      "max": [
        0.024728214368224144,
        0.024728214368224144,
        0.07581467181444168
      ],
      "min": [
        -0.024728214368224144,
        -0.024728214368224144,
        0.013059246353805065
      ],
      "type": "VEC3"
    },
    {
      "bufferView": 2,
      "byteOffset": 787980,
      "componentType": 5126,
      "count": 10083,
      "max": [
        0.9998350143432617,
        0.9998349547386169,
        1.0
      ],
      "min": [
        -0.9998350143432617,
        -0.9998349547386169,
        -1.0
      ],
      "type": "VEC3"
    },
    {
      "bufferView": 3,
      "byteOffset": 444656,
      "componentType": 5126,
      "count": 10083,
      "max": [
        0.9805142879486084,
        0.9991360902786255,
        0.9998346567153931,
        -1.0
      ],
      "min": [
        -0.7742732167243958,
        -0.9752230644226074,
        -0.9998342990875244,
        -1.0
      ],
      "type": "VEC4"
    },
    {
      "bufferView": 1,
      "byteOffset": 222328,
      "componentType": 5126,
      "count": 10083,
      "max": [
        0.9336287379264832,
        0.9813709259033203
      ],
      "min": [
        0.3806622326374054,
        0.3722214698791504
      ],
      "type": "VEC2"
    },
    {
      "bufferView": 0,
      "byteOffset": 589824,
      "componentType": 5125,
      "count": 52224,
      "type": "SCALAR"
    },
    {
      "bufferView": 2,
      "byteOffset": 908976,
      "componentType": 5126,
      "count": 6463,
      "max": [
        0.014774874784052372,
        0.014774871990084648,
        0.15599223971366882
      ],
      "min": [
        -0.014774874784052372,
        -0.014774874784052372,
        0.07981128990650177
      ],
      "type": "VEC3"
    },
    {
      "bufferView": 2,
      "byteOffset": 986532,
      "componentType": 5126,
      "count": 6463,
      "max": [
        0.9999999403953552,
        1.0,
        1.0
      ],
      "min": [
        -0.9999999403953552,
        -0.9999999403953552,
        -0.9999991655349731
      ],
      "type": "VEC3"
    },
    {
      "bufferView": 3,
      "byteOffset": 605984,
      "componentType": 5126,
      "count": 6463,
      "max": [
        0.9982859492301941,
        1.0,
        0.9999769330024719,
        1.0
      ],
      "min": [
        -1.0,
        -1.0,
        -0.999896228313446,
        1.0
      ],
      "type": "VEC4"
    },
    {
      "bufferView": 1,
      "byteOffset": 302992,
      "componentType": 5126,
      "count": 6463,
      "max": [
        0.99951171875,
        0.9815119504928589
      ],
      "min": [
        0.0004883358487859368,
        0.2860618531703949
      ],
      "type": "VEC2"
    },
    {
      "bufferView": 0,
      "byteOffset": 798720,
      "componentType": 5125,
      "count": 33792,
      "type": "SCALAR"
    }
  ],
  "asset": {
    "extras": {
      "author": "Rylae Shylna (https://sketchfab.com/risteralline)",
      "license": "CC-BY-4.0 (http://creativecommons.org/licenses/by/4.0/)",
      "source": "https://sketchfab.com/3d-models/bottle-of-red-nail-polish-90ec83cc76324f8fa70f4a996eac64e3",
      "title": "Bottle of red nail polish"
    },
    "generator": "Sketchfab-16.33.0",
    "version": "2.0"
  },
  "bufferViews": [
    {
      "buffer": 0,
      "byteLength": 933888,
      "name": "floatBufferViews",
      "target": 34963
    },
    {
      "buffer": 0,
      "byteLength": 354696,
      "byteOffset": 933888,
      "byteStride": 8,
      "name": "floatBufferViews",
      "target": 34962
    },
    {
      "buffer": 0,
      "byteLength": 1064088,
      "byteOffset": 1288584,
      "byteStride": 12,
      "name": "floatBufferViews",
      "target": 34962
    },
    {
      "buffer": 0,
      "byteLength": 709392,
      "byteOffset": 2352672,
      "byteStride": 16,
      "name": "floatBufferViews",
      "target": 34962
    }
  ],
  "buffers": [
    {
      "byteLength": 3062064,
      "uri": "scene.bin"
    }
  ],
  "images": [
    {
      "uri": "textures/NailPolish_baseColor.png"
    },
    {
      "uri": "textures/NailPolish_metallicRoughness.png"
    },
    {
      "uri": "textures/NailPolish_normal.png"
    }
  ],
  "materials": [
    {
      "alphaMode": "BLEND",
      "doubleSided": true,
      "name": "NailPolish",
      "normalTexture": {
        "index": 2
      },
      "occlusionTexture": {
        "index": 1
      },
      "pbrMetallicRoughness": {
        "baseColorTexture": {
          "index": 0
        },
        "metallicRoughnessTexture": {
          "index": 1
        }
      }
    }
  ],
  "meshes": [
    {
      "name": "Bottle_high_NailPolish_0",
      "primitives": [
        {
          "attributes": {
            "NORMAL": 1,
            "POSITION": 0,
            "TANGENT": 2,
            "TEXCOORD_0": 3
          },
          "indices": 4,
          "material": 0,
          "mode": 4
        }
      ]
    },
    {
      "name": "Vial_high_NailPolish_0",
      "primitives": [
        {
          "attributes": {
            "NORMAL": 6,
            "POSITION": 5,
            "TANGENT": 7,
            "TEXCOORD_0": 8
          },
          "indices": 9,
          "material": 0,
          "mode": 4
        }
      ]
    },
    {
      "name": "Cap_high_NailPolish_0",
      "primitives": [
        {
          "attributes": {
            "NORMAL": 11,
            "POSITION": 10,
            "TANGENT": 12,
            "TEXCOORD_0": 13
          },
          "indices": 14,
          "material": 0,
          "mode": 4
        }
      ]
    }
  ],
  "nodes": [
    {
      "children": [
        1
      ],
      "matrix": [
        1.0,
        0.0,
        0.0,
        0.0,
        0.0,
        2.220446049250313e-16,
        -1.0,
        0.0,
        0.0,
        1.0,
        2.220446049250313e-16,
        0.0,
        0.0,
        0.0,
        0.0,
        1.0
      ],
      "name": "Sketchfab_model"
    },
    {
      "children": [
        2
      ],
      "matrix": [
        0.009999999776482582,
        0.0,
        0.0,
        0.0,
        0.0,
        0.0,
        0.009999999776482582,
        0.0,
        0.0,
        -0.009999999776482582,
        0.0,
        0.0,
        0.0,
        0.0,
        0.0,
        1.0
      ],
      "name": "NailPolish_render.fbx"
    },
    {
      "children": [
        3,
        5,
        7
      ],
      "name": "RootNode"
    },
    {
      "children": [
        4
      ],
      "matrix": [
        100.0,
        0.0,
        0.0,
        0.0,
        0.0,
        -1.629206793918314e-05,
        -99.99999999999868,
        0.0,
        0.0,
        99.99999999999868,
        -1.629206793918314e-05,
        0.0,
        0.0,
        0.0,
        0.0,
        1.0
      ],
      "name": "Bottle_high"
    },
    {
      "mesh": 0,
      "name": "Bottle_high_NailPolish_0"
    },
    {
      "children": [
        6
      ],
      "matrix": [
        100.0,
        0.0,
        0.0,
        0.0,
        0.0,
        -1.629206793918314e-05,
        -99.99999999999868,
        0.0,
        0.0,
        99.99999999999868,
        -1.629206793918314e-05,
        0.0,
        0.0,
        0.0,
        0.0,
        1.0
      ],
      "name": "Vial_high"
    },
    {
      "mesh": 1,
      "name": "Vial_high_NailPolish_0"
    },
    {
      "children": [
        8
      ],
      "matrix": [
        100.0,
        0.0,
        0.0,
        0.0,
        0.0,
        -1.629206793918314e-05,
        -99.99999999999868,
        0.0,
        0.0,
        99.99999999999868,
        -1.629206793918314e-05,
        0.0,
        0.0,
        0.0,
        0.0,
        1.0
      ],
      "name": "Cap_high"
    },
    {
      "mesh": 2,
      "name": "Cap_high_NailPolish_0"
    }
  ],
  "samplers": [
    {
      "magFilter": 9729,
      "minFilter": 9987,
      "wrapS": 10497,
      "wrapT": 10497
    }
  ],
  "scene": 0,
  "scenes": [
    {
      "name": "Sketchfab_Scene",
      "nodes": [
        0
      ]
    }
  ],
  "textures": [
    {
      "sampler": 0,
      "source": 0
    },
    {
      "sampler": 0,
      "source": 1
    },
    {
      "sampler": 0,
      "source": 2
    }
  ]
}
